PathFileType	4	(X/Y/Z)	E:\Marcel_BSc\Hannes_22_01_2025\22-01-2025\sumo_dl_3.trc
DataRate	CameraRate	NumFrames	NumMarkers	Units	OrigDataRate	OrigDataStartFrame	OrigNumFrames
200.0	200.0	4	48	mm	200.0	3808	2673	
Frame#	Time	FHD			LBHD			RBHD			RBAR			LBAR			RSACR			LSACR			USACR			LASI			C7			CLAV			T10			RSHO			LSHO			LTHI1			LTHI3			LTHI2			LTIB1			LTIB2			LTIB3			LMMAL			LLMAL			LHEE			LMT1			LMT5			LMT3			RTHI1			RTHI2			RTHI3			RTIB1			RTIB3			RTIB2			RLMAL			RMMAL			RHEE			RMT5			RMT1			RMT3			LDUPA			LMUPA			LUUPA			LUL			LRAD			LRFIN			RRAD			RMUPA			RDUPA			RUUPA			
		X1	Y1	Z1	X2	Y2	Z2	X3	Y3	Z3	X4	Y4	Z4	X5	Y5	Z5	X6	Y6	Z6	X7	Y7	Z7	X8	Y8	Z8	X9	Y9	Z9	X10	Y10	Z10	X11	Y11	Z11	X12	Y12	Z12	X13	Y13	Z13	X14	Y14	Z14	X15	Y15	Z15	X16	Y16	Z16	X17	Y17	Z17	X18	Y18	Z18	X19	Y19	Z19	X20	Y20	Z20	X21	Y21	Z21	X22	Y22	Z22	X23	Y23	Z23	X24	Y24	Z24	X25	Y25	Z25	X26	Y26	Z26	X27	Y27	Z27	X28	Y28	Z28	X29	Y29	Z29	X30	Y30	Z30	X31	Y31	Z31	X32	Y32	Z32	X33	Y33	Z33	X34	Y34	Z34	X35	Y35	Z35	X36	Y36	Z36	X37	Y37	Z37	X38	Y38	Z38	X39	Y39	Z39	X40	Y40	Z40	X41	Y41	Z41	X42	Y42	Z42	X43	Y43	Z43	X44	Y44	Z44	X45	Y45	Z45	X46	Y46	Z46	X47	Y47	Z47	X48	Y48	Z48	
3808	19.03	-175.16623	1381.2201	-979.13159	-100.26542	1425.6609	-873.99255	-87.444984	1442.8182	-1069.8495	101.47198	540.7832	-2073.2678	136.99814	580.367	146.21492	392.03137	963.64874	-976.03473	387.95917	967.5014	-917.57715	380.95187	980.41614	-948.97998				142.40503	1388.1403	-952.90277	13.008727	1255.3042	-967.74725	314.20822	1109.9357	-948.07849	93.27549	1288.8984	-1164.3949	66.390717	1285.87	-759.68121	296.28409	762.75293	-683.58875	299.1376	701.07416	-660.20978	254.67905	723.45532	-648.89362	231.84608	274.00916	-506.42694	274.50552	270.87808	-535.87543	254.32521	212.13803	-516.52435	187.18063	80.33316	-560.48206	246.23491	82.018089	-491.40598	269.29147	26.480833	-545.66577	76.659721	41.906864	-451.0101	147.57921	27.97156	-389.71503	101.05634	32.728237	-408.09009	332.03146	739.60358	-1201.9923	291.38919	704.80542	-1240.7321	330.6586	677.8681	-1225.3254	222.67642	280.44968	-1378.3571	232.39203	216.16515	-1385.0703	267.4389	265.25391	-1360.7784	233.77258	78.657623	-1404.5304	160.83405	80.239334	-1341.1512	253.34505	29.643333	-1351.2605	148.78087	24.336802	-1505.4734	64.287926	37.055283	-1462.8419	94.636955	29.697184	-1500.63	77.017372	1028.0793	-693.94116	73.440712	1089.705	-700.81842	43.88615	1083.1565	-740.50104	75.630623	692.3277	-701.29132	71.600792	691.43298	-751.93573	75.705826	585.3175	-765.8255	144.53938	691.30676	-1233.6613	160.99301	1063.1196	-1233.5099	131.90707	1023.0961	-1226.2933	113.04488	1099.2946	-1217.4011
3809	19.035	-176.28288	1379.7117	-979.09436	-101.47443	1424.3403	-873.85553	-88.671928	1441.5089	-1069.7489	101.04324	539.78217	-2073.0518	137.18977	579.53363	146.32533	392.3429	963.57233	-975.84375	388.20346	967.49597	-917.41504	381.16956	980.42487	-948.85828				141.21901	1387.3221	-952.77771	12.16972	1254.1725	-967.69171	313.94766	1109.8098	-947.91071	92.373962	1287.9698	-1164.277	65.191254	1284.7921	-759.62396	296.74127	762.84113	-683.4635	299.55927	701.1861	-660.05322	255.08183	723.61633	-648.73871	231.99652	273.98706	-506.20074	274.62601	270.87848	-535.67352	254.46788	212.10913	-516.37079	187.22208	80.399796	-560.41101	246.28488	81.995728	-491.34271	269.31299	26.476416	-545.64441	76.706284	41.912022	-450.98096	147.6026	27.953144	-389.66168	101.08167	32.712795	-408.06274	332.67969	739.6189	-1202.0099	292.01559	704.91034	-1240.842	331.0491	678.10693	-1225.4708	223.05806	280.50034	-1378.5562	232.70947	216.13657	-1385.2198	267.68915	265.07095	-1360.8213	233.83478	78.633171	-1404.611	160.95715	80.319794	-1341.2095	253.3575	29.657398	-1351.2604	148.82674	24.322369	-1505.4806	64.312073	37.069366	-1462.8727	94.659622	29.698666	-1500.6554	76.258575	1027.0198	-693.97375	72.548851	1088.6697	-700.84326	43.088188	1082.1066	-740.52039	75.450478	691.36969	-701.15887	71.206017	690.69147	-751.65668	75.768845	584.34277	-765.69055	144.37384	690.49695	-1233.5709	160.3317	1062.2992	-1233.4315	131.34862	1022.2218	-1226.1488	112.3835	1098.3818	-1217.2115
3810	19.04	-177.4162	1378.2316	-978.97363	-102.69716	1422.9922	-873.75928	-90.021866	1440.2909	-1069.6355	100.79784	539.28119	-2072.5996	137.41463	578.73169	146.44057	392.58954	963.53583	-975.69769	388.47748	967.47296	-917.2594	381.34973	980.39648	-948.7533				139.98216	1386.5721	-952.67548	11.359919	1253.0132	-967.69482	313.69437	1109.667	-947.77179	91.452812	1287.01	-1164.1775	64.05864	1283.8284	-759.59125	297.29959	762.91089	-683.36151	300.07794	701.24164	-659.86908	255.9489	723.61371	-648.54468	232.12871	273.93146	-505.96213	274.72675	270.89435	-535.45801	254.62366	212.09108	-516.19556	187.26947	80.466667	-560.36469	246.34039	81.985268	-491.30475	269.32089	26.47994	-545.62604	76.733971	41.911266	-450.96844	147.636	27.926014	-389.63632	101.09127	32.708996	-408.03656	333.26416	739.62878	-1202.0229	292.5947	705.01892	-1240.9636	331.65009	678.13269	-1225.5575	223.41888	280.52853	-1378.7885	232.96182	216.13242	-1385.4133	267.98422	265.17007	-1361.0771	233.88753	78.637657	-1404.6721	161.04585	80.415268	-1341.2925	253.4095	29.647062	-1351.2915	148.84212	24.283464	-1505.504	64.348862	37.066975	-1462.891	94.678619	29.699879	-1500.6759	75.489624	1026.0128	-694.03027	71.656853	1087.6185	-700.89337	42.250996	1080.973	-740.62653	75.248894	690.31677	-701.05255	71.055664	689.70538	-751.47681	75.889412	583.29407	-765.60986	144.19237	689.64117	-1233.4995	159.66595	1061.4337	-1233.3929	130.72989	1021.3477	-1226.0582	111.644	1097.5212	-1216.9656
3811	19.045	-178.54169	1376.6958	-978.91766	-103.8718	1421.5983	-873.70581	-91.294426	1438.9393	-1069.598	100.76302	538.22034	-2072.4792	137.64438	577.88751	146.58218	392.78094	963.52222	-975.59369	388.83466	967.53729	-916.96497	381.53842	980.29889	-948.63989				138.78503	1385.7302	-952.60095	10.574095	1251.7786	-967.72943	313.40063	1109.5203	-947.66455	90.551971	1286.0835	-1164.1144	62.926495	1282.7279	-759.59552	297.75638	762.87787	-683.23737	300.47974	701.26483	-659.73322	256.46432	723.75861	-648.37518	232.22481	273.95566	-505.72162	274.81927	270.90521	-535.27173	254.65831	212.11205	-516.04645	187.28786	80.555771	-560.3186	246.3421	81.983833	-491.25607	269.32074	26.486248	-545.62225	76.755569	41.916985	-450.93924	147.63594	27.910627	-389.60236	101.10115	32.691757	-408.01459	333.78174	739.65112	-1202.1306	293.15048	705.11536	-1241.1235	332.26355	677.97412	-1225.7209	223.68428	280.55994	-1379.0415	233.18604	216.1368	-1385.5764	268.17813	265.05225	-1361.1813	233.97963	78.637321	-1404.7407	161.16228	80.509544	-1341.3514	253.45955	29.659864	-1351.3334	148.84462	24.240757	-1505.5243	64.423027	37.073017	-1462.8837	94.700859	29.696016	-1500.6801	74.725487	1025.0066	-694.19672	70.879097	1086.5453	-700.99689	41.490082	1079.9078	-740.758	75.012253	689.25665	-701.00732	71.012215	688.60785	-751.46942	75.96904	582.20837	-765.4845	144.02983	688.75604	-1233.4124	158.9679	1060.6609	-1233.3395	130.10236	1020.5297	-1225.9296	110.93723	1096.6155	-1216.8339
